<svg width="600" height="320" viewBox="0 0 600 320" fill="none" xmlns="http://www.w3.org/2000/svg">
<g clip-path="url(#clip0_1_2)">
<mask id="mask0_1_2" style="mask-type:luminance" maskUnits="userSpaceOnUse" x="0" y="0" width="600" height="320">
<path d="M600 0H0V320H600V0Z" fill="white"/>
</mask>
<g mask="url(#mask0_1_2)">
<path d="M600 3.05176e-05H0V320H600V3.05176e-05Z" fill="#151619"/>
<mask id="mask1_1_2" style="mask-type:luminance" maskUnits="userSpaceOnUse" x="-531" y="-406" width="1662" height="1133">
<path d="M1131 -405.866H-531V726.864H1131V-405.866Z" fill="white"/>
</mask>
<g mask="url(#mask1_1_2)">
<path d="M-193.706 -359.461C-187.97 -332.044 -200.011 -298.268 -183.582 -274.563C-163.953 -246.254 -118.919 -230.095 -90.423 -213.843C-55.958 -194.161 -21.765 -176.057 -7.61655 -140.068C16.7364 -78.1455 -4.97023 -4.19472 -27.178 60.1303C-68.6621 180.357 -116.557 302.027 -180.41 412.25C-220.544 481.528 -275.959 549.04 -301.594 625.69C-307.655 643.819 -312.124 663.853 -307.832 682.887" stroke="url(#paint0_linear_1_2)" stroke-width="2.33686" stroke-miterlimit="10" stroke-linecap="round"/>
<path d="M-183.785 -360.554C-179.034 -332.097 -189.373 -299.104 -171.406 -274.589C-150.509 -246.051 -107.149 -230.244 -77.8544 -213.058C-43.6614 -193.012 -9.20952 -174.707 5.03125 -138.825C29.3314 -77.6462 10.1343 -1.92622 -12.5583 61.7227C-55.3235 181.639 -104.814 304.296 -169.353 414.207C-209.596 482.758 -263.459 550.039 -287.718 626.689C-293.522 645.022 -297.774 665.217 -293.441 684.346" stroke="url(#paint1_linear_1_2)" stroke-width="2.33686" stroke-miterlimit="10" stroke-linecap="round"/>
<path d="M-175.134 -362.187C-171.043 -331.854 -179.223 -300.211 -159.055 -274.521C-137.335 -246.847 -98.888 -232.267 -69.2029 -214.462C-34.4278 -193.606 2.99187 -174.261 17.7207 -137.299C41.9104 -76.5918 23.1205 -0.25349 0.305939 62.6552C-43.0544 182.179 -93.6102 303.296 -157.841 413.115C-198.095 481.934 -250.407 550.769 -273.126 628.202C-278.593 646.817 -282.549 667.255 -278.107 686.533" stroke="url(#paint2_linear_1_2)" stroke-width="2.33686" stroke-miterlimit="10" stroke-linecap="round"/>
<path d="M-167.599 -364.295C-164.103 -332.382 -169.436 -300.888 -147.243 -274.577C-98.2251 -216.489 1.94008 -206.324 30.3837 -135.506C54.6294 -75.1631 35.8924 1.60867 12.5518 63.9354C-31.9017 182.663 -83.3083 301.864 -146.647 411.722C-186.661 481.137 -237.094 551.752 -258.046 630.156C-263.121 649.138 -266.686 669.858 -262.095 689.339" stroke="url(#paint3_linear_1_2)" stroke-width="2.33686" stroke-miterlimit="10" stroke-linecap="round"/>
<path d="M-160.961 -366.804C-157.869 -333.123 -159.259 -301.885 -135.783 -274.738C-85.808 -216.947 14.466 -204.594 43.0976 -133.466C67.3433 -73.2447 48.7002 3.4728 24.6177 65.2058C-21.2538 182.814 -73.7535 300.016 -135.648 409.995C-175.215 480.287 -223.475 552.914 -242.43 632.4C-247.06 651.798 -250.191 672.858 -245.386 692.553" stroke="url(#paint4_linear_1_2)" stroke-width="2.33686" stroke-miterlimit="10" stroke-linecap="round"/>
<path d="M-155.047 -369.626C-152.049 -333.825 -149.309 -302.736 -124.105 -274.779C-72.7941 -217.865 26.9935 -202.273 55.8015 -131.158C80.1 -71.1659 61.4718 5.37518 36.4428 66.5146C-11.1286 182.718 -64.9244 297.828 -124.943 408.024C-163.861 479.477 -209.693 554.264 -226.513 634.95C-230.643 654.795 -233.317 676.218 -228.282 696.183" stroke="url(#paint5_linear_1_2)" stroke-width="2.33686" stroke-miterlimit="10" stroke-linecap="round"/>
<path d="M-149.673 -372.691C-146.474 -334.487 -139.549 -303.803 -112.306 -274.739C-63.2356 -222.375 42.9642 -201.018 68.5191 -128.607C91.1029 -64.6203 74.257 7.33209 48.0805 67.8236C-1.46292 182.327 -56.6881 295.277 -114.479 405.755C-152.59 478.613 -195.747 555.654 -210.352 637.622C-213.971 657.939 -216.145 679.741 -210.867 699.99" stroke="url(#paint6_linear_1_2)" stroke-width="2.33686" stroke-miterlimit="10" stroke-linecap="round"/>
<path d="M-144.638 -375.93C-141.007 -335.323 -129.533 -304.68 -100.86 -274.792C-74.6576 -247.469 -40.3409 -232.593 -9.79176 -210.913C22.7409 -187.828 67.1549 -165.513 81.2489 -125.811C103.927 -61.9327 87.0527 9.35848 59.5274 69.1608C7.73013 181.707 -48.9807 292.388 -104.275 403.233C-141.426 477.696 -181.708 557.086 -194.074 640.391C-197.151 661.181 -198.839 683.361 -193.317 703.92" stroke="url(#paint7_linear_1_2)" stroke-width="2.33686" stroke-miterlimit="10" stroke-linecap="round"/>
<path d="M-139.764 -379.251C-135.511 -336.795 -119.069 -305.274 -89.1419 -274.697C-61.3314 -246.281 -25.6396 -230.095 6.31433 -206.89C37.889 -183.968 80.1958 -161.424 93.9931 -122.761C116.753 -58.9356 99.8777 11.4916 70.8009 70.5652C16.466 180.95 -41.704 289.189 -94.3241 400.492C-130.382 476.751 -167.64 558.489 -177.779 643.185C-180.316 664.433 -181.505 686.991 -175.767 707.875" stroke="url(#paint8_linear_1_2)" stroke-width="2.33686" stroke-miterlimit="10" stroke-linecap="round"/>
<path d="M-134.851 -382.585C-129.776 -338.186 -108.716 -306.043 -77.5734 -274.617C-48.3202 -245.093 -11.0208 -227.489 22.1747 -202.772C52.831 -179.944 93.2219 -157.212 106.721 -119.481C129.59 -55.6422 112.716 13.7315 81.8962 72.0219C24.7386 180.1 -34.7801 285.625 -84.6467 397.522C-119.516 475.764 -153.534 559.758 -161.593 645.885C-163.618 667.552 -164.321 690.474 -158.395 711.668" stroke="url(#paint9_linear_1_2)" stroke-width="2.33686" stroke-miterlimit="10" stroke-linecap="round"/>
<path d="M-129.719 -385.853C-123.658 -339.563 -98.1427 -306.773 -65.8392 -274.428C-36.06 -244.621 1.32008 -226.64 34.6096 -201.018C65.2675 -177.42 105.794 -154.04 119.482 -115.971C142.471 -52.0776 125.637 16.1073 92.8472 73.5485C32.5717 179.181 -28.1359 281.696 -75.2209 394.336C-108.781 474.603 -139.627 560.892 -145.622 648.422C-147.134 670.495 -147.389 693.713 -141.341 715.232" stroke="url(#paint10_linear_1_2)" stroke-width="2.33686" stroke-miterlimit="10" stroke-linecap="round"/>
<path d="M-124.187 -388.984C-116.937 -340.953 -87.3743 -307.556 -54.0305 -274.172C-23.0757 -243.177 15.8708 -223.765 50.2254 -196.63C80.2486 -172.925 118.602 -149.275 132.209 -112.246C155.55 -48.7173 138.567 18.6317 103.644 75.1265C39.927 178.208 -21.699 277.376 -66.0849 390.934C-98.268 473.268 -125.942 561.756 -130.004 650.704C-131.032 673.127 -130.91 696.602 -124.781 718.405" stroke="url(#paint11_linear_1_2)" stroke-width="2.33686" stroke-miterlimit="10" stroke-linecap="round"/>
<path d="M-118.057 -391.899C-109.821 -342.221 -76.3154 -308.203 -42.0944 -273.833C-11.6409 -243.257 26.1186 -224.708 59.3948 -197.278C90.2803 -171.817 130.698 -147.087 144.953 -108.303C168.403 -44.5175 151.581 21.3458 114.323 76.8019C81.1426 126.197 44.3148 172.985 15.642 225.31C-12.734 277.108 -36.9913 331.848 -57.2139 387.344C-87.9527 471.743 -112.48 562.31 -114.804 652.649C-115.384 675.354 -114.937 699.02 -108.823 721.091" stroke="url(#paint12_linear_1_2)" stroke-width="2.33686" stroke-miterlimit="10" stroke-linecap="round"/>
<path d="M-111.133 -394.532C-101.777 -343.558 -64.9233 -308.986 -30.1218 -273.442C1.1973 -241.448 40.5346 -221.699 74.81 -192.769C104.886 -167.39 143.765 -142.106 157.724 -104.158C181.293 -40.0362 164.688 24.2624 124.919 78.5709C90.2132 125.953 52.1307 170.705 22.8643 221.867C-6.36251 272.936 -29.6899 327.879 -48.5753 383.564C-77.8961 469.987 -99.3735 562.485 -100.157 654.174C-100.346 677.095 -99.6307 700.868 -93.6505 723.156" stroke="url(#paint13_linear_1_2)" stroke-width="2.33686" stroke-miterlimit="10" stroke-linecap="round"/>
<path d="M-103.25 -396.787C-92.9647 -345.152 -53.8022 -309.338 -18.582 -273.119C13.034 -240.598 52.762 -220.565 87.1331 -190.799C117.344 -164.624 156.33 -138.245 170.464 -99.7994C194.197 -35.2848 177.849 27.4474 135.379 80.4599C99.1199 125.723 59.7694 168.381 29.8402 218.356C-0.290102 268.655 -22.6446 323.801 -40.2754 379.635C-68.165 467.99 -86.7273 562.229 -86.2145 655.214C-86.0925 678.271 -85.1741 702.056 -79.451 724.52" stroke="url(#paint14_linear_1_2)" stroke-width="2.33686" stroke-miterlimit="10" stroke-linecap="round"/>
<path d="M-94.1914 -398.595C-83.1081 -346.825 -42.0429 -309.283 -6.86388 -272.713C24.1173 -240.49 63.0226 -221.239 96.3665 -191.446C127.496 -163.637 168.345 -135.423 183.209 -95.2629C192.078 -71.3008 194.278 -45.0979 193.32 -19.4095C191.808 21.1842 174.988 48.9518 148.596 79.2866C110.568 123.011 69.3276 163.577 37.8865 212.647C5.94735 262.514 -15.4361 318.915 -32.1748 375.477C-59.0388 466.262 -74.8608 562.932 -72.9844 657.819C-72.5392 680.202 -71.4857 703.082 -66.315 724.979" stroke="url(#paint15_linear_1_2)" stroke-width="2.33686" stroke-miterlimit="10" stroke-linecap="round"/>
<path d="M-83.876 -399.919C-70.5519 -348.027 -30.6887 -309.891 4.88274 -272.228C36.7147 -238.532 77.1863 -218.095 111.528 -186.75C142.402 -158.575 181.104 -130.294 195.968 -90.3091C204.905 -66.2661 207.146 -39.9429 206.173 -14.144C204.661 26.4481 186.748 52.6378 159.033 81.5941C119.399 122.983 76.8615 161.281 44.6108 209.149C11.6462 258.099 -8.77929 314.675 -24.438 371.224C-50.0061 463.506 -63.3565 561.539 -60.7118 657.413C-60.0902 679.728 -58.9559 702.569 -53.584 724.33" stroke="url(#paint16_linear_1_2)" stroke-width="2.33686" stroke-miterlimit="10" stroke-linecap="round"/>
<path d="M-72.4277 -400.809C-57.417 -349.011 -18.8348 -310.268 16.7762 -271.673C48.5273 -237.262 89.5118 -216.69 123.814 -184.533C154.958 -155.348 193.674 -125.959 208.752 -85.1643C217.703 -60.9466 220.051 -34.5541 219.08 -8.56882C217.54 32.0512 198.48 56.6069 169.469 84.0514C128.269 123.037 84.4087 159.041 51.322 205.696C17.317 253.646 -2.22964 310.37 -16.9453 366.812C-41.2306 459.93 -52.8943 559.111 -48.5464 655.417C-47.534 677.799 -45.9957 700.708 -40.3254 722.482" stroke="url(#paint17_linear_1_2)" stroke-width="2.33686" stroke-miterlimit="10" stroke-linecap="round"/>
<path d="M-60.0068 -401.309C-43.7661 -349.768 -6.60192 -310.43 28.7123 -271.066C60.2738 -235.872 101.825 -215.204 136.047 -182.253C167.446 -152.014 206.203 -121.491 221.498 -79.8586C230.015 -56.6664 232.771 -31.3424 232.136 -6.42221C230.988 38.5441 210.212 61.1015 176.545 89.4775C135.305 124.253 92.2673 157.07 59.4642 200.444C23.568 247.895 4.31814 305.631 -9.58627 362.909C-32.17 455.92 -41.9705 554.495 -36.2475 650.165C-34.8575 673.331 -32.94 697.075 -26.757 719.552" stroke="url(#paint18_linear_1_2)" stroke-width="2.33686" stroke-miterlimit="10" stroke-linecap="round"/>
<path d="M-46.7139 -401.458C-29.6108 -350.322 5.96064 -310.418 40.7077 -270.392C71.1232 -235.361 112.324 -215.692 145.369 -182.754C177.768 -150.475 218.294 -118.05 234.223 -74.3662C242.916 -50.5261 245.792 -24.5128 244.956 1.05527C243.564 43.4297 222.383 64.8262 189.918 89.7332C147.058 122.605 101.847 152.775 67.4778 195.165C29.5436 241.927 11.3869 301.135 -1.9091 358.967C-23.5217 452.964 -31.2299 552.752 -23.3189 648.99C-21.4838 671.331 -19.0946 694.132 -12.8308 715.745" stroke="url(#paint19_linear_1_2)" stroke-width="2.33686" stroke-miterlimit="10" stroke-linecap="round"/>
<path d="M-32.6729 -401.322C-15.1361 -350.699 18.8013 -310.201 52.7388 -269.689C82.7751 -233.834 124.65 -214.098 157.59 -180.403C190.258 -146.978 230.972 -113.27 246.983 -68.7093C255.636 -44.6251 258.728 -18.4503 257.864 7.44092C256.446 50.005 233.943 69.7412 200.261 92.813C156.01 123.118 109.45 150.833 74.1766 192.088C35.2564 237.608 18.2341 297.397 5.8829 354.891C-14.3265 449.023 -19.916 548.783 -10.2227 644.656C-7.96875 666.945 -5.16086 689.664 1.38657 711.182" stroke="url(#paint20_linear_1_2)" stroke-width="2.33686" stroke-miterlimit="10" stroke-linecap="round"/>
<path d="M-18.04 -400.93C-0.368107 -350.888 31.8282 -309.836 64.7664 -268.946C80.2504 -249.709 94.1004 -237.857 115.659 -225.207C137.177 -212.573 152.688 -195.913 169.764 -177.987C202.704 -143.387 243.473 -108.437 259.712 -62.9035C268.554 -38.1054 271.714 -11.2414 270.701 15.3803C269.041 59.3475 242.96 76.5858 206.848 98.3336C160.315 126.358 111.731 152.67 76.0789 194.815C39.6171 237.919 24.4976 296.479 13.7919 350.801C-4.62039 444.272 -8.10435 542.831 2.85693 637.489C5.51646 660.479 8.79762 683.928 15.8315 706.067" stroke="url(#paint21_linear_1_2)" stroke-width="2.33686" stroke-miterlimit="10" stroke-linecap="round"/>
<path d="M-2.9209 -400.324C14.6422 -350.916 45.0166 -309.324 76.7809 -268.15C92.0077 -248.414 105.886 -236.764 127.579 -223.9C149.353 -210.98 164.811 -193.89 181.888 -175.477C215.109 -139.662 255.932 -103.457 272.401 -56.9246C281.446 -31.3829 284.74 -3.79011 283.484 23.5999C281.581 65.1779 255.649 81.0395 220.954 99.615C172.626 125.495 121.95 149.119 84.5699 190.494C46.245 232.91 32.1246 291.889 22.0273 346.791C4.73454 440.721 3.50617 540.09 16.667 634.708C19.7453 656.833 23.3496 679.297 30.3834 700.571" stroke="url(#paint22_linear_1_2)" stroke-width="2.33686" stroke-miterlimit="10" stroke-linecap="round"/>
<path d="M12.5498 -399.568C29.8029 -350.821 58.273 -308.716 88.7957 -267.354C103.739 -247.091 117.685 -235.658 139.513 -222.576C161.558 -209.361 176.946 -191.838 194.038 -172.926C227.515 -135.869 268.419 -98.3814 285.118 -50.8083C293.771 -26.1586 297.24 0.273438 296.457 26.6907C295.108 72.7106 265.936 87.263 227.218 105.258C179.889 127.276 130.09 148.16 93.0332 186.269C53.1155 227.321 39.4551 288.055 30.3421 342.889C12.1047 452.613 8.14914 587.202 45.0709 694.82" stroke="url(#paint23_linear_1_2)" stroke-width="2.33686" stroke-miterlimit="10" stroke-linecap="round"/>
<path d="M28.2363 -398.704C45.0558 -350.525 71.6643 -308.177 100.754 -266.531C115.241 -245.796 128.011 -235.577 149.623 -222.226C171.33 -208.794 186.626 -192.446 203.338 -173.451C237.383 -134.762 281.121 -94.6283 297.794 -44.5457C306.379 -18.7484 310.212 8.07607 309.255 35.2896C307.716 79.2848 279.38 91.7449 241.568 107.39C192.659 127.613 141.119 145.473 102.159 182.853C60.243 223.068 47.595 283.775 39.0756 339.244C22.1885 449.048 22.2429 582.073 59.7715 689.029" stroke="url(#paint24_linear_1_2)" stroke-width="2.33686" stroke-miterlimit="10" stroke-linecap="round"/>
<path d="M44.0156 -397.76C60.2564 -350.188 84.9061 -307.435 112.66 -265.695C126.807 -244.419 139.727 -234.43 161.462 -220.835C183.452 -207.093 198.679 -190.341 215.404 -170.847C249.734 -130.835 293.446 -89.1895 310.455 -38.1341C318.676 -13.4712 322.725 12.4085 322.267 38.5025C321.471 83.6453 296.645 95.6057 256.565 110.077C206.158 128.287 152.255 143.164 111.229 179.571C67.5457 218.343 55.3825 280.413 47.8359 335.869C32.8251 446.268 36.6042 576.578 74.4031 683.317" stroke="url(#paint25_linear_1_2)" stroke-width="2.33686" stroke-miterlimit="10" stroke-linecap="round"/>
<path d="M59.7733 -396.802C75.3513 -349.783 98.057 -306.652 124.517 -264.858C138.326 -243.056 151.447 -233.242 173.291 -219.432C195.551 -205.366 210.723 -188.195 227.451 -168.202C262.076 -126.826 305.842 -83.8173 323.093 -31.6143C331.504 -6.16826 335.688 20.521 335.054 47.4247C333.96 94.2541 303.789 103.651 262.71 116.165C210.765 131.985 154.27 145.486 113.312 183.608C73.3941 220.772 63.432 281.142 57.1006 332.871C43.5474 443.554 51.2011 571.421 88.9721 677.85" stroke="url(#paint26_linear_1_2)" stroke-width="2.33686" stroke-miterlimit="10" stroke-linecap="round"/>
<path d="M75.3485 -395.882C90.224 -349.363 111.001 -305.841 136.27 -264.046C149.758 -241.732 163.134 -232.067 185.098 -218.027C207.629 -203.623 222.749 -186.034 239.474 -165.541C275.451 -121.452 316.678 -77.8489 335.725 -24.9979C344.906 0.448172 348.645 28.7978 347.821 56.539C346.376 104.961 310.185 111.576 268.498 122.173C221.278 134.188 170.655 144.907 130.993 175.037C83.5695 211.067 72.4317 274.338 66.4251 330.294C54.5587 440.842 65.9387 566.846 103.373 672.79" stroke="url(#paint27_linear_1_2)" stroke-width="2.33686" stroke-miterlimit="10" stroke-linecap="round"/>
<path d="M90.6464 -395.019C104.793 -348.891 123.72 -305.005 147.924 -263.224C161.126 -240.423 174.788 -230.838 196.873 -216.556C219.687 -201.814 234.726 -183.793 251.465 -162.774C287.671 -117.308 329.033 -72.274 348.324 -18.2211C357.544 7.58933 361.458 36.2886 360.594 64.3942C359.096 113.398 321.283 118.203 279.219 127.113C231.486 137.224 179.824 145.878 139.379 175.267C91.7263 209.905 81.3174 273.204 76.1467 328.296C65.7263 439.343 81.0206 562.255 117.55 668.348" stroke="url(#paint28_linear_1_2)" stroke-width="2.33686" stroke-miterlimit="10" stroke-linecap="round"/>
<path d="M105.504 -394.277C118.95 -348.541 135.905 -304.046 159.422 -262.455C171.734 -240.667 185.448 -229.691 206.777 -216.299C232.603 -200.086 247.627 -180.283 266.23 -156.416C301.815 -110.775 341.894 -65.2682 360.915 -11.3504C370.311 15.2564 374.564 44.9828 373.32 73.898C371.309 120.756 335.307 124.144 294.984 131.501C243.064 140.963 185.219 146.769 142.142 180.477C98.9717 214.253 90.6023 275.635 86.3632 326.891C77.1019 438.748 96.3666 557.908 131.491 664.635" stroke="url(#paint29_linear_1_2)" stroke-width="2.33686" stroke-miterlimit="10" stroke-linecap="round"/>
<path d="M119.832 -393.709C132.602 -348.176 147.951 -303.277 170.82 -261.698C183.023 -239.518 197.023 -228.476 218.485 -214.842C244.621 -198.236 259.592 -177.948 278.194 -153.514C313.994 -106.482 354.195 -59.5172 373.46 -4.39908C383.031 22.9794 387.716 53.8798 385.975 83.6045C383.383 127.774 349.552 130.975 311.47 136.549C255.704 144.718 190.205 147.755 145.359 186.525C107.197 219.517 99.9062 278.929 96.5987 326.149C88.7289 438.56 112.015 554.587 145.023 661.801" stroke="url(#paint30_linear_1_2)" stroke-width="2.33686" stroke-miterlimit="10" stroke-linecap="round"/>
<path d="M133.465 -393.345C145.642 -347.839 159.775 -302.642 182.158 -260.97C194.28 -238.398 208.575 -227.26 230.175 -213.343C256.594 -196.321 271.552 -175.546 290.153 -150.543C326.183 -102.121 366.493 -53.6722 385.986 2.67593C395.705 30.7815 400.983 63.0306 398.607 93.5401C395.084 138.925 357.042 139.1 317.463 143.448C266.65 149.023 208.926 151.008 165.095 180.868C118.872 212.348 110.664 274.594 107.492 326.258C100.54 439.276 127.902 552.023 158.196 660.112" stroke="url(#paint31_linear_1_2)" stroke-width="2.33686" stroke-miterlimit="10" stroke-linecap="round"/>
<path d="M146.318 -393.237C158.156 -347.676 171.912 -302.142 193.592 -260.173C206.633 -234.942 224.155 -223.885 247.253 -208.375C272.334 -191.528 287.251 -167.931 304.788 -143.86C340.209 -95.2634 379.197 -46.368 398.473 9.8168C408.261 38.328 413.702 70.9959 411.285 101.883C407.693 147.794 368.829 146.701 329.006 149.941C278.099 154.086 219.483 154.154 175.246 183.636C129.322 214.266 121.289 276.363 118.59 327.176C112.568 440.827 143.942 550.537 170.886 659.599" stroke="url(#paint32_linear_1_2)" stroke-width="2.33686" stroke-miterlimit="10" stroke-linecap="round"/>
<path d="M158.992 -393.143C171.345 -347.73 183.79 -301.616 204.958 -259.39C217.823 -233.714 235.751 -222.576 258.956 -206.769C284.295 -189.503 299.171 -165.339 316.707 -140.729C352.358 -90.7143 391.398 -40.3613 410.905 17.1064C420.828 46.3595 427.011 80.4734 423.839 112.116C419.168 158.836 373.769 155.099 334.89 157.163C283.957 159.877 222.278 159.013 179.701 191.587C139.823 222.096 131.993 282.547 129.929 329.012C124.974 440.234 154.524 552.778 182.657 659.722" stroke="url(#paint33_linear_1_2)" stroke-width="2.33686" stroke-miterlimit="10" stroke-linecap="round"/>
<path d="M171.937 -392.926C184.681 -347.797 195.467 -300.9 216.255 -258.62C228.757 -233.214 245.927 -222.279 268.715 -206.296C293.932 -188.612 308.524 -166.404 325.926 -141.39C362.59 -88.6481 403.13 -35.784 423.285 24.4784C433.219 54.1635 439.618 88.6813 436.432 120.729C431.748 167.991 385.931 163.184 346.823 164.4C296.16 165.979 233.508 163.414 191.025 195.948C151.688 226.078 143.508 286.044 141.793 331.901C137.703 441.288 164.85 554.777 193.334 660.073" stroke="url(#paint34_linear_1_2)" stroke-width="2.33686" stroke-miterlimit="10" stroke-linecap="round"/>
<path d="M185.142 -392.576C198.235 -347.622 207.484 -300.28 227.652 -257.797C239.922 -231.96 257.512 -220.944 280.368 -204.677C305.827 -186.573 320.392 -163.841 337.781 -138.273C374.661 -84.0731 415.295 -29.669 435.638 31.9289C445.532 61.8845 452.431 97.1179 448.988 129.435C444.007 176.102 397.271 170.96 358.813 171.824C308.419 172.958 245.889 169.57 203.367 201.644C164.191 231.194 157.157 290.889 155.361 336.072C151.096 443.744 174.611 556.842 202.987 660.64" stroke="url(#paint35_linear_1_2)" stroke-width="2.33686" stroke-miterlimit="10" stroke-linecap="round"/>
<path d="M198.56 -392.117C211.993 -347.231 219.889 -299.821 239.126 -256.92C250.506 -231.527 267.772 -219.89 290.14 -204.434C315.817 -186.681 329.951 -164.637 347.001 -139.055C384.934 -82.1418 426.972 -24.999 447.977 39.4068C457.696 69.2008 462.853 101.451 461.651 133.417C459.829 182.232 416.159 178.209 376.457 179.356C324.902 180.842 263.143 175.765 218.755 207.206C177.515 236.431 171.48 293.953 169.159 340.77C163.921 446.282 184.062 559.191 211.695 661.328" stroke="url(#paint36_linear_1_2)" stroke-width="2.33686" stroke-miterlimit="10" stroke-linecap="round"/>
<path d="M212.206 -391.537C225.868 -346.826 232.051 -299.133 250.518 -256.056C261.588 -230.245 279.299 -218.527 301.721 -202.814C327.654 -184.657 341.733 -162.087 358.77 -135.978C396.92 -77.539 439.051 -18.8166 460.233 46.9527C469.966 77.1655 475.311 109.875 474.096 142.246C472.287 190.655 427.793 186.335 388.685 187.402C337.509 188.805 276.463 183.771 232.173 214.482C191.282 242.83 185.64 300.081 182.832 346.06C176.514 449.467 192.753 561.769 219.442 662.246" stroke="url(#paint37_linear_1_2)" stroke-width="2.33686" stroke-miterlimit="10" stroke-linecap="round"/>
<path d="M226.056 -390.861C239.852 -346.394 243.916 -298.281 261.815 -255.245C272.467 -229.636 289.53 -218.256 311.52 -202.34C339.708 -181.956 354.625 -157.751 373.118 -128.863C410.662 -70.2622 451.605 -11.1607 472.489 54.5411C482.235 85.1974 487.783 118.339 486.542 151.115C484.72 199.092 439.725 194.665 401.13 195.732C350.399 197.135 290.124 192.276 246.035 222.312C205.617 249.838 200.056 306.684 196.613 351.826C188.905 452.991 200.961 564.497 226.379 663.3" stroke="url(#paint38_linear_1_2)" stroke-width="2.33686" stroke-miterlimit="10" stroke-linecap="round"/>
<path d="M240.1 -390.092C254.03 -345.76 256.136 -297.54 273.228 -254.369C283.528 -228.341 301.05 -216.867 323.081 -200.735C351.538 -179.879 366.387 -155.121 384.882 -125.678C422.611 -65.5655 463.65 -4.92564 484.724 62.1661C494.483 93.2429 500.247 126.855 498.964 160.051C497.129 207.583 451.906 203.223 413.757 204.371C363.511 205.883 304.087 201.293 260.307 230.707C220.444 257.491 214.68 313.77 210.467 358.075C201.086 456.852 208.672 567.411 232.553 664.512" stroke="url(#paint39_linear_1_2)" stroke-width="2.33686" stroke-miterlimit="10" stroke-linecap="round"/>
<path d="M254.299 -389.228C268.326 -345.004 268.365 -296.784 284.606 -253.477C294.514 -227.046 312.535 -215.476 334.58 -199.102C363.294 -177.786 378.089 -152.46 396.557 -122.452C434.476 -60.8262 475.609 1.36517 496.857 69.8353C506.632 101.329 512.612 135.415 511.275 169.029C509.411 216.101 464.242 211.984 426.471 213.28C376.753 214.982 318.26 210.743 274.858 239.618C235.643 265.712 229.392 321.317 224.289 364.771C212.99 461.05 215.798 570.503 237.938 665.864" stroke="url(#paint40_linear_1_2)" stroke-width="2.33686" stroke-miterlimit="10" stroke-linecap="round"/>
<path d="M268.677 -388.297C282.756 -344.032 281.137 -296.23 296.107 -252.533C305.097 -226.317 322.634 -214.531 344.286 -198.845C375.579 -176.193 391.048 -147.682 410.732 -115.082C448.016 -53.3339 488.03 9.16748 508.981 77.5288C518.767 109.456 524.95 144.027 523.573 178.047C521.683 224.647 476.811 220.934 439.363 222.433C390.225 224.403 332.718 220.611 289.79 248.987C251.275 274.459 244.324 329.267 238.194 371.858C224.736 465.504 222.495 573.717 242.703 667.348" stroke="url(#paint41_linear_1_2)" stroke-width="2.33686" stroke-miterlimit="10" stroke-linecap="round"/>
<path d="M283.202 -387.271C297.309 -343.019 293.476 -295.461 307.515 -251.628C316.033 -225.034 334.122 -213.127 355.776 -197.252C387.324 -174.114 402.741 -144.942 422.396 -111.76C459.857 -48.5145 499.949 15.4988 521.077 85.2237C530.878 117.568 537.277 152.627 535.846 187.064C533.928 233.191 489.569 230.019 452.391 231.788C403.875 234.11 347.407 230.843 305.03 258.774C267.26 283.679 259.39 337.584 252.14 379.297C236.346 470.189 228.732 577.024 246.875 668.914" stroke="url(#paint42_linear_1_2)" stroke-width="2.33686" stroke-miterlimit="10" stroke-linecap="round"/>
<path d="M297.847 -386.19C311.967 -341.912 305.839 -294.704 318.892 -250.723C326.897 -223.765 345.595 -211.696 367.207 -195.645C399.026 -172.021 414.362 -142.174 433.976 -108.424C471.599 -43.6822 511.787 21.8448 533.076 92.9464C542.89 125.71 549.505 161.268 548.006 196.122C546.049 241.751 502.431 239.267 465.483 241.374C417.628 244.114 362.253 241.441 320.5 268.993C283.511 293.414 274.52 346.291 266.043 387.114C247.736 475.157 234.48 580.466 250.45 670.643" stroke="url(#paint43_linear_1_2)" stroke-width="2.33686" stroke-miterlimit="10" stroke-linecap="round"/>
<path d="M312.6 -385.056C326.695 -340.751 317.623 -293.786 330.137 -249.886C338.439 -220.794 361.267 -207.672 383.959 -190.057C412.093 -168.241 425.699 -139.905 443.046 -109.436C481.6 -41.7379 523.125 26.5838 545.035 100.681C554.848 133.877 561.68 169.921 560.128 205.181C558.143 250.311 515.444 248.622 478.698 251.147C431.546 254.373 377.305 252.362 336.253 279.564C300.046 303.553 289.801 355.309 279.987 395.213C259.049 480.3 239.825 583.962 253.568 672.452" stroke="url(#paint44_linear_1_2)" stroke-width="2.33686" stroke-miterlimit="10" stroke-linecap="round"/>
<path d="M327.479 -383.867C341.558 -339.4 329.949 -293.056 341.519 -248.994C349.253 -219.511 372.77 -206.2 395.422 -188.395C423.743 -166.134 437.283 -137.178 454.604 -106.21C493.307 -36.9845 534.913 32.8755 556.984 108.391C566.81 142.005 573.831 178.548 572.225 214.226C570.214 258.856 528.608 258.073 492.024 261.056C445.626 264.85 392.52 263.513 352.238 290.418C316.828 314.068 305.164 364.598 293.933 403.53C270.256 485.566 244.808 587.433 256.269 674.289" stroke="url(#paint45_linear_1_2)" stroke-width="2.33686" stroke-miterlimit="10" stroke-linecap="round"/>
<path d="M342.422 -382.626C356.475 -337.93 342.26 -292.342 352.87 -248.091C360.039 -218.23 384.244 -204.716 406.841 -186.708C435.352 -164.002 448.811 -134.398 466.091 -102.945C504.942 -32.208 546.616 39.2053 568.848 116.111C578.69 150.144 585.898 187.186 584.238 223.27C582.213 267.386 541.836 267.602 505.4 271.125C459.814 275.526 407.84 274.932 368.396 301.594C333.769 324.989 320.58 374.181 307.85 412.128C281.378 491.032 249.411 590.97 258.59 676.259" stroke="url(#paint46_linear_1_2)" stroke-width="2.33686" stroke-miterlimit="10" stroke-linecap="round"/>
<path d="M357.463 -381.358C371.489 -336.365 355.344 -291.803 364.388 -247.12C370.464 -217.097 394.154 -204.542 416.442 -186.345C444.67 -163.288 458.021 -135.912 475.138 -104.228C514.934 -30.5066 558.537 44.2257 580.703 123.805C590.301 158.269 597.957 195.568 596.229 232.287C594.176 275.877 555.177 277.186 518.89 281.303C474.139 286.38 423.341 286.555 384.772 312.987C350.876 336.205 336.093 383.966 321.797 420.875C296.703 485.699 275.4 554.397 264.343 623.218C261.428 641.347 259.146 659.87 260.671 678.242" stroke="url(#paint47_linear_1_2)" stroke-width="2.33686" stroke-miterlimit="10" stroke-linecap="round"/>
<path d="M372.54 -380.061C386.525 -334.729 367.708 -291.113 375.726 -246.227C381.139 -215.934 405.668 -203.016 427.807 -184.696C456.209 -161.194 469.48 -133.25 486.542 -101.08C526.475 -25.8215 570.119 50.4639 592.46 131.475C602.018 166.128 613.573 209.353 608.012 246.356C601.977 286.489 562.599 287.934 527.797 292.16C484.897 297.357 435.718 299.543 399.243 325.517C368.072 347.71 350.563 396.078 335.618 429.799C308.647 490.696 284.443 554.764 269.646 619.831C265.165 639.541 261.25 659.966 262.438 680.296" stroke="url(#paint48_linear_1_2)" stroke-width="2.33686" stroke-miterlimit="10" stroke-linecap="round"/>
<path d="M387.658 -378.737C401.604 -333.001 380.057 -290.451 387.065 -245.349C391.804 -214.8 417.169 -201.502 439.159 -183.062C467.723 -159.102 480.899 -130.577 497.923 -97.9342C537.962 -21.1359 581.672 56.6879 604.164 139.13C613.733 174.241 625.412 217.899 619.836 255.346C613.936 295.035 576.084 297.694 541.431 302.595C499.367 308.547 451.497 311.531 415.86 337.302C385.147 359.495 366.033 406.013 349.469 438.844C319.77 497.688 291.691 559.489 273.683 623.072C268.242 642.254 263.383 662.287 264.044 682.388" stroke="url(#paint49_linear_1_2)" stroke-width="2.33686" stroke-miterlimit="10" stroke-linecap="round"/>
<path d="M402.819 -377.401C416.738 -331.193 391.561 -289.709 398.23 -244.553C402.59 -215.003 427.239 -200.545 448.732 -182.995C479.551 -157.819 493.888 -124.813 511.68 -90.106C551.044 -13.3605 593.649 64.544 615.814 146.729C625.411 182.314 637.158 226.363 631.595 264.256C625.844 303.498 589.571 307.414 555.106 313.056C513.893 319.793 467.347 323.613 432.587 349.181C402.225 371.508 381.571 415.989 363.294 447.957C330.814 504.761 298.833 564.227 277.585 626.325C271.213 644.955 265.381 664.582 265.529 684.467" stroke="url(#paint50_linear_1_2)" stroke-width="2.33686" stroke-miterlimit="10" stroke-linecap="round"/>
<path d="M417.996 -376.051C431.859 -329.316 403.834 -289.101 409.557 -243.689C413.311 -213.868 438.662 -199.113 460.06 -181.402C491.041 -155.768 505.255 -122.099 523.006 -86.92C562.466 -8.67741 605.124 70.7144 627.412 154.289C637.037 190.36 648.822 234.759 643.3 273.126C637.713 311.935 603.073 317.132 568.81 323.559C528.487 331.119 483.278 335.789 449.381 361.169C419.237 383.739 397.138 426.02 377.079 457.136C341.763 511.916 305.909 568.98 281.406 629.618C274.104 647.681 267.314 666.891 266.963 686.599" stroke="url(#paint51_linear_1_2)" stroke-width="2.33686" stroke-miterlimit="10" stroke-linecap="round"/>
<path d="M433.165 -374.714C446.989 -327.412 416.061 -288.52 420.854 -242.852C424.013 -212.774 450.052 -197.696 471.368 -179.823C502.498 -153.729 516.605 -119.412 534.29 -83.7596C573.843 -4.03307 616.528 76.8295 638.95 161.781C648.576 198.258 659.417 241.28 655.001 280.024C650.642 318.336 621.657 325.49 586.856 333.13C547.83 341.703 505.022 346.576 471.139 369.647C437.904 392.285 414.049 434.201 390.831 466.303C352.248 519.639 311.927 574.785 284.253 634.871C276.463 651.771 269.241 669.86 268.418 688.693" stroke="url(#paint52_linear_1_2)" stroke-width="2.33686" stroke-miterlimit="10" stroke-linecap="round"/>
<path d="M448.314 -373.379C462.098 -325.402 428.012 -287.833 432.29 -241.935C435.354 -209.132 465.364 -193.755 487.84 -173.844C517.445 -147.615 530.836 -110.68 547.846 -75.8504C586.696 3.75576 628.316 84.5623 650.402 169.219C660.04 206.167 670.893 249.513 666.533 288.716C662.334 326.555 634.85 334.951 600.387 343.509C562.344 352.959 520.779 358.683 487.854 381.66C454.861 404.675 429.563 444.473 404.508 475.467C363.024 526.793 318.854 579.373 287.899 638.068C279.287 654.402 271.16 672.073 269.919 690.783" stroke="url(#paint53_linear_1_2)" stroke-width="2.33686" stroke-miterlimit="10" stroke-linecap="round"/>
<path d="M463.444 -372.056C477.174 -323.431 440.197 -287.293 443.572 -241.111C445.976 -208.118 476.809 -192.256 499.123 -172.21C528.808 -145.535 542.092 -107.911 559.034 -72.6515C597.952 8.38583 639.598 90.612 661.806 176.602C671.417 213.808 681.474 256.101 678.073 295.506C674.872 332.576 650.803 343.254 617.797 352.771C576.651 364.638 530.86 371.022 496.977 399.493C467.873 423.954 443.437 456.447 418.1 484.593C373.416 534.218 324.413 585.003 290.53 643.037C281.607 658.319 273.102 674.963 271.549 692.876" stroke="url(#paint54_linear_1_2)" stroke-width="2.33686" stroke-miterlimit="10" stroke-linecap="round"/>
<path d="M478.526 -370.76C492.201 -321.473 452.364 -286.779 454.847 -240.315C456.617 -207.16 488.246 -190.784 510.398 -170.603C540.165 -143.483 553.326 -105.172 570.2 -69.4929C609.174 12.9624 650.846 96.6048 673.148 183.893C682.772 221.557 692.817 264.175 689.468 304.012C686.377 340.716 663.671 352.325 631.136 362.95C590.922 376.071 547.158 383.335 513.801 411.399C484.506 436.035 458.696 466.585 431.655 493.625C384.071 541.225 331.287 589.363 294.204 646.102C284.578 660.829 275.238 677.083 273.361 694.915" stroke="url(#paint55_linear_1_2)" stroke-width="2.33686" stroke-miterlimit="10" stroke-linecap="round"/>
<path d="M493.539 -369.492C507.16 -319.611 465.028 -286.403 465.892 -239.627C466.446 -209.955 492.566 -194.174 512.924 -176.611C547.023 -147.17 560.308 -111.517 578.99 -71.3028C618.718 14.1896 661.566 100.762 684.38 191.113C694.006 229.237 704.036 272.151 700.742 312.42C697.772 348.652 676.402 361.424 644.367 373.033C605.152 387.248 563.249 395.604 530.487 423.183C500.95 448.036 473.775 476.628 445.102 502.547C394.642 548.148 338.187 593.627 297.972 649.11C287.698 663.285 277.533 679.146 275.387 696.925" stroke="url(#paint56_linear_1_2)" stroke-width="2.33686" stroke-miterlimit="10" stroke-linecap="round"/>
<path d="M508.493 -368.249C522.047 -317.693 477.08 -285.902 477.133 -238.856C477.161 -209.01 503.877 -192.85 524.139 -175.153C558.334 -145.265 571.481 -108.924 590.083 -68.2903C629.839 18.6052 672.7 106.568 695.595 198.243C705.154 236.474 714.549 278.591 712.037 318.914C709.648 357.132 687.887 371.037 654.059 384.28C618.797 398.089 581.646 407.431 551.313 431.258C519.414 456.313 490.012 485.499 458.518 511.283C404.709 555.372 343.975 598.34 300.709 653.554C290.315 666.81 280.028 681.74 277.761 698.858" stroke="url(#paint57_linear_1_2)" stroke-width="2.33686" stroke-miterlimit="10" stroke-linecap="round"/>
<path d="M523.345 -367.075C536.831 -315.844 489.07 -285.43 488.341 -238.141C487.881 -208.133 515.151 -191.595 535.306 -173.735C569.581 -143.402 582.594 -106.373 601.088 -65.3343C640.871 22.9512 683.718 112.292 706.694 205.262C716.253 243.911 725.621 286.34 723.151 327.067C720.856 364.772 700.418 379.864 667.263 394.187C633.082 408.942 597.362 419.243 567.677 442.69C535.48 468.123 504.892 495.244 471.832 519.855C415.254 561.945 351.051 602.227 304.789 656.307C293.88 669.064 282.88 683.629 280.476 700.719" stroke="url(#paint58_linear_1_2)" stroke-width="2.33686" stroke-miterlimit="10" stroke-linecap="round"/>
<path d="M538.098 -365.941C551.625 -313.968 500.57 -284.877 499.721 -237.331C499.14 -205.069 530.58 -187.277 551.638 -167.715C581.338 -140.122 593.703 -103.768 609.808 -67.4825C650.348 23.8418 694.26 116.152 717.736 212.174C727.186 250.835 736.082 292.657 734.233 333.317C732.424 373.005 711.649 389.178 677.332 405.365C647.012 419.66 614.816 429.919 587.912 450.601C553.691 476.898 521.008 503.83 485.046 528.183C427.039 567.453 362.93 604.252 313.387 654.551C300.441 667.699 286.361 683.479 283.647 702.502" stroke="url(#paint59_linear_1_2)" stroke-width="2.33686" stroke-miterlimit="10" stroke-linecap="round"/>
<path d="M552.743 -364.862C566.215 -312.241 512.448 -284.446 510.909 -236.644C509.869 -204.231 541.862 -185.994 562.801 -166.271C592.54 -138.273 604.73 -101.326 620.755 -64.6878C661.279 28 705.18 121.672 728.709 218.977C738.145 258.03 747.029 300.162 745.192 341.186C743.451 380.323 723.957 397.709 690.438 414.976C661.185 430.054 630.069 441.056 603.853 461.508C569.429 488.372 535.585 513.157 498.205 536.241C437.62 573.649 370.502 607.977 318.218 657.156C304.853 669.723 289.962 685.126 287.276 704.175" stroke="url(#paint60_linear_1_2)" stroke-width="2.33686" stroke-miterlimit="10" stroke-linecap="round"/>
<path d="M567.244 -363.849C580.676 -310.607 524.262 -284.04 522.075 -235.982C520.603 -203.435 553.096 -184.737 573.925 -164.853C603.678 -136.45 615.706 -98.9219 631.65 -61.9325C672.162 32.1041 716.035 127.113 739.591 225.66C749.014 265.092 757.87 307.521 756.048 348.896C754.346 387.492 736.041 406.052 703.387 424.358C675.199 440.166 645.123 451.911 619.555 472.105C584.941 499.456 549.884 522.229 511.262 544.031C448.247 579.603 378.264 611.516 323.389 659.613C309.674 671.628 294.028 686.68 291.463 705.755" stroke="url(#paint61_linear_1_2)" stroke-width="2.33686" stroke-miterlimit="10" stroke-linecap="round"/>
<path d="M581.608 -362.918C594.906 -309.123 536.481 -283.744 533.025 -235.457C530.716 -203.274 563.155 -184.576 583.31 -164.936C615.182 -133.859 627.642 -94.2115 644.705 -54.0498C684.461 39.5828 727.254 134.241 750.407 232.22C759.815 272.03 768.631 314.728 766.808 356.456C765.147 394.537 747.922 414.206 716.186 433.51C689.078 449.993 659.973 462.44 635.027 482.351C600.265 510.092 563.912 530.976 524.237 551.495C458.954 585.258 386.244 614.795 328.94 661.895C314.968 673.382 298.594 688.111 296.271 707.225" stroke="url(#paint62_linear_1_2)" stroke-width="2.33686" stroke-miterlimit="10" stroke-linecap="round"/>
<path d="M595.808 -362.067C609.077 -307.705 548.127 -283.393 544.159 -234.862C541.512 -202.53 574.343 -183.429 594.416 -163.599C626.248 -132.131 638.573 -91.8211 655.516 -51.3362C695.231 43.5643 737.97 139.479 761.149 238.658C770.423 278.347 778.914 320.574 777.538 362.124C776.322 399.02 761.797 420.24 731.571 440.624C668.434 483.201 606.027 525.833 537.098 558.61C469.344 590.819 392.437 618.061 333.189 665.324C319.635 676.137 303.611 690.109 301.749 708.602" stroke="url(#paint63_linear_1_2)" stroke-width="2.33686" stroke-miterlimit="10" stroke-linecap="round"/>
<path d="M609.836 -361.297C623.12 -306.394 559.686 -283.067 555.285 -234.28C552.355 -201.787 585.509 -182.321 605.503 -162.288C637.28 -130.443 649.457 -89.4845 666.278 -48.6897C705.925 47.454 748.611 144.608 771.789 244.937C787.759 314.068 810.964 400.41 743.886 449.13C682.194 493.922 619.839 534.717 549.859 565.32C480.215 595.776 400.783 620.696 339.55 667.146C325.74 677.622 309.527 691.217 307.947 709.806" stroke="url(#paint64_linear_1_2)" stroke-width="2.33686" stroke-miterlimit="10" stroke-linecap="round"/>
<path d="M623.658 -360.621C636.968 -305.165 570.835 -282.756 566.582 -233.631C563.829 -201.746 594.701 -182.563 614.937 -162.745C649.293 -129.105 661.335 -84.5293 679.074 -40.9001C717.951 54.7309 759.571 151.414 782.331 251.066C798.125 320.252 820.913 406.729 755.993 457.298C695.623 504.317 633.539 542.966 562.518 571.598C491.2 600.352 409.382 623.005 346.42 668.726C332.542 678.81 315.897 692.202 314.939 710.845" stroke="url(#paint65_linear_1_2)" stroke-width="2.33686" stroke-miterlimit="10" stroke-linecap="round"/>
<path d="M637.291 -360.069C650.669 -304.141 582.253 -282.542 577.678 -233.147C574.709 -201.099 605.797 -181.607 625.978 -161.559C660.254 -127.54 672.12 -82.2641 689.723 -38.3629C728.521 58.442 770.059 156.272 792.792 257.018C808.424 326.284 830.752 412.803 767.872 465.099C742.6 486.118 714.104 503.924 687.969 523.903C654.733 549.309 614.181 562.849 575.073 577.415C502.324 604.508 418.236 624.96 353.829 670.061C339.953 679.781 322.957 693.066 322.78 711.722" stroke="url(#paint66_linear_1_2)" stroke-width="2.33686" stroke-miterlimit="10" stroke-linecap="round"/>
<path d="M650.699 -359.608C664.13 -303.424 594.204 -282.176 588.763 -232.673C585.239 -200.626 617.071 -180.471 637.01 -160.396C671.19 -126 682.882 -80.0481 700.323 -35.8782C739.012 62.0611 780.483 161.026 803.176 262.812C818.658 332.212 840.474 418.636 779.537 472.539C755.441 493.855 727.538 512.295 701.807 531.599C668.33 556.735 626.926 569.141 587.535 582.735C513.625 608.249 427.417 626.541 361.851 671.13C348.014 680.539 330.802 693.755 331.544 712.424" stroke="url(#paint67_linear_1_2)" stroke-width="2.33686" stroke-miterlimit="10" stroke-linecap="round"/>
<path d="M663.872 -359.272C677.48 -302.534 605.069 -282.217 599.615 -232.337C595.862 -198.007 632.5 -176.043 652.708 -154.256C680.113 -124.719 690.385 -85.9886 704.721 -49.1756C745.302 55.0803 789.633 160.187 813.473 268.44C828.796 338.016 850.07 424.237 790.942 479.584C767.94 501.116 740.576 520.043 715.211 538.699C681.503 563.484 639.478 574.877 599.898 587.567C525.111 611.529 436.879 627.715 370.501 671.925C356.732 681.092 339.452 694.334 341.276 712.963" stroke="url(#paint68_linear_1_2)" stroke-width="2.33686" stroke-miterlimit="10" stroke-linecap="round"/>
<path d="M676.792 -359.056C690.481 -302.372 617.016 -281.853 611.077 -231.743C607.041 -197.684 643.3 -174.95 663.104 -152.851C690.143 -122.666 700.51 -83.761 714.862 -46.6512C755.563 58.6038 799.881 164.588 823.653 273.879C838.826 343.645 859.535 429.541 802.067 486.186C780.049 507.893 753.213 527.09 728.118 545.098C694.179 569.451 651.818 579.952 612.129 591.806C536.789 614.295 446.653 628.444 379.817 672.398C366.129 681.402 348.971 694.726 352.036 713.273" stroke="url(#paint69_linear_1_2)" stroke-width="2.33686" stroke-miterlimit="10" stroke-linecap="round"/>
<path d="M689.452 -358.988C703.033 -303.951 628.325 -280.664 622.386 -231.257C618.323 -197.4 653.745 -173.925 673.13 -151.353C699.63 -120.48 710.119 -81.3721 724.497 -44.0183C765.373 62.1139 810.123 168.813 833.76 279.119C848.759 349.125 868.913 434.55 812.918 492.315C759.434 547.474 697.24 575.08 624.276 595.451C548.734 616.551 456.748 628.714 389.884 672.546C376.277 681.469 359.498 694.983 363.912 713.369" stroke="url(#paint70_linear_1_2)" stroke-width="2.33686" stroke-miterlimit="10" stroke-linecap="round"/>
<path d="M701.035 -359.34C710.903 -304.748 638.816 -280.895 633.741 -230.744C630.649 -200.114 657.162 -179.366 675.535 -158.238C706.664 -122.452 719.004 -79.4018 735.743 -35.9062C776.147 69.0257 820.397 174.632 843.644 283.612C858.938 355.308 878.284 440.841 821.383 500.09C769.451 554.142 707.84 579.817 636.319 598.501C585.29 611.839 533.763 623.421 483.288 638.797C456.33 647.004 426.442 655.576 402.751 671.357C388.859 680.605 372.917 694.968 378.398 713.463" stroke="url(#paint71_linear_1_2)" stroke-width="2.33686" stroke-miterlimit="10" stroke-linecap="round"/>
<path d="M710.732 -360.419C717.522 -306.516 649.254 -281.015 644.814 -230.391C642.141 -199.842 667.343 -178.554 685.218 -156.739C715.24 -120.129 727.822 -76.6069 744.575 -33.0833C785.167 72.3878 829.811 178.466 853.3 287.96C868.716 359.818 887.601 445.175 831.674 505.248C781.279 559.38 718.737 583.532 648.27 600.892C575.412 618.846 481.928 627.377 418.698 671.981C405.211 681.498 390.874 695.887 397.112 713.762" stroke="url(#paint72_linear_1_2)" stroke-width="2.33686" stroke-miterlimit="10" stroke-linecap="round"/>
<path d="M718.746 -362.147C723.093 -309.121 659.821 -281.015 655.623 -230.217C652.977 -198.143 681.124 -173.532 698.659 -150.043C726.442 -112.838 738.592 -67.8173 755.127 -24.9714C795.316 79.1905 839.324 184 862.678 292.118C877.932 362.707 897.075 447.686 843.293 507.583C793.385 563.161 729.749 585.596 658.985 602.768C611.318 614.336 563.206 624.488 516.268 638.879C488.594 647.37 456.088 656.645 433.583 675.962C422.271 685.669 413.281 699.113 419.423 714.22" stroke="url(#paint73_linear_1_2)" stroke-width="2.33686" stroke-miterlimit="10" stroke-linecap="round"/>
<path d="M725.322 -364.428C727.995 -312.091 669.556 -281.11 666.56 -230.001C664.669 -197.846 690.724 -172.843 707.761 -148.409C734.326 -110.314 746.801 -65.077 763.405 -22.1354C803.822 82.4305 848.182 187.62 871.845 296.115C886.925 365.231 906.445 450.089 854.796 509.568C805.711 566.091 741.103 587.487 670.649 604.577C641.208 611.718 412.365 645.265 444.898 714.8" stroke="url(#paint74_linear_1_2)" stroke-width="2.33686" stroke-miterlimit="10" stroke-linecap="round"/>
<path d="M730.711 -367.169C732.358 -315.304 678.82 -281.245 677.591 -229.772C676.767 -195.306 702.915 -168.996 720.182 -141.432C744.493 -102.592 757.034 -56.6547 773.517 -14.1583C813.544 89.0044 857.227 192.87 880.799 299.92C896.296 370.306 916.167 455.746 862.291 515.535C814.179 568.925 751.176 589.484 683.314 606.305C656.343 612.986 436.598 646.83 472.992 715.502" stroke="url(#paint75_linear_1_2)" stroke-width="2.33686" stroke-miterlimit="10" stroke-linecap="round"/>
<path d="M735.107 -370.274C736.268 -318.827 689.007 -281.258 688.453 -229.65C688.088 -195.307 712.441 -167.958 728.844 -139.743C751.968 -99.9608 764.86 -54.1981 781.478 -11.4577C821.693 92.015 865.675 196.177 889.555 303.511C905.147 373.574 925.665 459.498 871.479 519.085C823.988 571.301 763.496 590.996 696.918 607.937C670.296 614.714 463.107 648.302 503.214 716.286" stroke="url(#paint76_linear_1_2)" stroke-width="2.33686" stroke-miterlimit="10" stroke-linecap="round"/>
<path d="M738.779 -373.676C740.088 -322.365 698.05 -281.421 699.226 -229.636C699.927 -198.616 717.747 -173.331 732.407 -147.236C754.209 -108.411 767.384 -65.6854 783.394 -24.297C825.553 84.658 872.788 193.976 898.153 306.899C913.556 375.45 934.318 460.928 882.737 520.298C837.662 572.178 775.538 592.63 711.307 609.517C680.528 617.603 492.279 650.137 535.031 717.176" stroke="url(#paint77_linear_1_2)" stroke-width="2.33686" stroke-miterlimit="10" stroke-linecap="round"/>
<path d="M741.94 -377.267C743.653 -325.807 707.556 -281.664 710.148 -229.597C711.688 -198.548 727.508 -172.764 741.386 -145.858C761.825 -106.238 775.23 -63.4312 791.307 -21.9076C833.588 87.3178 880.997 196.865 906.633 310.004C922.63 380.593 943.933 468.434 887.787 527.804C843.362 574.783 787.109 594.182 726.361 610.948C694.611 619.709 522.721 651.986 568.012 718.067" stroke="url(#paint78_linear_1_2)" stroke-width="2.33686" stroke-miterlimit="10" stroke-linecap="round"/>
<path d="M744.83 -380.966C747.219 -329.047 717.183 -282.056 721.191 -229.516C723.73 -196.442 739.282 -168.539 753.038 -139.016C771.801 -98.7322 785.234 -55.8862 801.299 -14.4698C843.051 93.2156 889.53 201.346 914.977 312.88C930.501 380.93 952.275 466.908 900.883 526.157C859.022 574.404 801.216 594.937 741.846 612.297C708.476 622.058 554.5 654.213 601.532 719.025" stroke="url(#paint79_linear_1_2)" stroke-width="2.33686" stroke-miterlimit="10" stroke-linecap="round"/>
</g>
</g>
</g>
<defs>
<linearGradient id="paint0_linear_1_2" x1="-309.535" y1="161.713" x2="3.1106" y2="161.713" gradientUnits="userSpaceOnUse">
<stop stop-color="#ED1EFF"/>
<stop offset="1" stop-color="#00D1FF"/>
</linearGradient>
<linearGradient id="paint1_linear_1_2" x1="-295.217" y1="161.896" x2="16.3157" y2="161.896" gradientUnits="userSpaceOnUse">
<stop stop-color="#ED1EFF"/>
<stop offset="1" stop-color="#00D1FF"/>
</linearGradient>
<linearGradient id="paint2_linear_1_2" x1="-280.023" y1="162.172" x2="29.0266" y2="162.172" gradientUnits="userSpaceOnUse">
<stop stop-color="#ED1EFF"/>
<stop offset="1" stop-color="#00D1FF"/>
</linearGradient>
<linearGradient id="paint3_linear_1_2" x1="-264.214" y1="162.523" x2="41.7242" y2="162.521" gradientUnits="userSpaceOnUse">
<stop stop-color="#ED1EFF"/>
<stop offset="1" stop-color="#00D1FF"/>
</linearGradient>
<linearGradient id="paint4_linear_1_2" x1="-247.79" y1="162.875" x2="54.4348" y2="162.875" gradientUnits="userSpaceOnUse">
<stop stop-color="#ED1EFF"/>
<stop offset="1" stop-color="#00D1FF"/>
</linearGradient>
<linearGradient id="paint5_linear_1_2" x1="-231.025" y1="163.278" x2="67.1453" y2="163.278" gradientUnits="userSpaceOnUse">
<stop stop-color="#ED1EFF"/>
<stop offset="1" stop-color="#00D1FF"/>
</linearGradient>
<linearGradient id="paint6_linear_1_2" x1="-214.019" y1="163.649" x2="79.0781" y2="163.649" gradientUnits="userSpaceOnUse">
<stop stop-color="#ED1EFF"/>
<stop offset="1" stop-color="#00D1FF"/>
</linearGradient>
<linearGradient id="paint7_linear_1_2" x1="-196.93" y1="163.995" x2="91.8194" y2="163.995" gradientUnits="userSpaceOnUse">
<stop stop-color="#ED1EFF"/>
<stop offset="1" stop-color="#00D1FF"/>
</linearGradient>
<linearGradient id="paint8_linear_1_2" x1="-179.884" y1="164.312" x2="104.567" y2="164.312" gradientUnits="userSpaceOnUse">
<stop stop-color="#ED1EFF"/>
<stop offset="1" stop-color="#00D1FF"/>
</linearGradient>
<linearGradient id="paint9_linear_1_2" x1="-163.053" y1="164.542" x2="117.311" y2="164.542" gradientUnits="userSpaceOnUse">
<stop stop-color="#ED1EFF"/>
<stop offset="1" stop-color="#00D1FF"/>
</linearGradient>
<linearGradient id="paint10_linear_1_2" x1="-146.53" y1="164.69" x2="130.1" y2="164.69" gradientUnits="userSpaceOnUse">
<stop stop-color="#ED1EFF"/>
<stop offset="1" stop-color="#00D1FF"/>
</linearGradient>
<linearGradient id="paint11_linear_1_2" x1="-130.491" y1="164.71" x2="142.963" y2="164.71" gradientUnits="userSpaceOnUse">
<stop stop-color="#ED1EFF"/>
<stop offset="1" stop-color="#00D1FF"/>
</linearGradient>
<linearGradient id="paint12_linear_1_2" x1="-118.057" y1="164.596" x2="155.746" y2="164.596" gradientUnits="userSpaceOnUse">
<stop stop-color="#ED1EFF"/>
<stop offset="1" stop-color="#00D1FF"/>
</linearGradient>
<linearGradient id="paint13_linear_1_2" x1="-111.133" y1="164.312" x2="168.57" y2="164.312" gradientUnits="userSpaceOnUse">
<stop stop-color="#ED1EFF"/>
<stop offset="1" stop-color="#00D1FF"/>
</linearGradient>
<linearGradient id="paint14_linear_1_2" x1="-103.25" y1="163.867" x2="181.397" y2="163.867" gradientUnits="userSpaceOnUse">
<stop stop-color="#ED1EFF"/>
<stop offset="1" stop-color="#00D1FF"/>
</linearGradient>
<linearGradient id="paint15_linear_1_2" x1="-94.1914" y1="163.191" x2="193.528" y2="163.191" gradientUnits="userSpaceOnUse">
<stop stop-color="#ED1EFF"/>
<stop offset="1" stop-color="#00D1FF"/>
</linearGradient>
<linearGradient id="paint16_linear_1_2" x1="-83.876" y1="162.206" x2="206.382" y2="162.206" gradientUnits="userSpaceOnUse">
<stop stop-color="#ED1EFF"/>
<stop offset="1" stop-color="#00D1FF"/>
</linearGradient>
<linearGradient id="paint17_linear_1_2" x1="-72.4277" y1="160.836" x2="219.285" y2="160.836" gradientUnits="userSpaceOnUse">
<stop stop-color="#ED1EFF"/>
<stop offset="1" stop-color="#00D1FF"/>
</linearGradient>
<linearGradient id="paint18_linear_1_2" x1="-60.0068" y1="159.122" x2="232.223" y2="159.122" gradientUnits="userSpaceOnUse">
<stop stop-color="#ED1EFF"/>
<stop offset="1" stop-color="#00D1FF"/>
</linearGradient>
<linearGradient id="paint19_linear_1_2" x1="-46.7139" y1="157.143" x2="245.094" y2="157.143" gradientUnits="userSpaceOnUse">
<stop stop-color="#ED1EFF"/>
<stop offset="1" stop-color="#00D1FF"/>
</linearGradient>
<linearGradient id="paint20_linear_1_2" x1="-32.6729" y1="154.93" x2="258.002" y2="154.93" gradientUnits="userSpaceOnUse">
<stop stop-color="#ED1EFF"/>
<stop offset="1" stop-color="#00D1FF"/>
</linearGradient>
<linearGradient id="paint21_linear_1_2" x1="-18.04" y1="152.568" x2="270.883" y2="152.568" gradientUnits="userSpaceOnUse">
<stop stop-color="#ED1EFF"/>
<stop offset="1" stop-color="#00D1FF"/>
</linearGradient>
<linearGradient id="paint22_linear_1_2" x1="-2.9209" y1="150.125" x2="283.741" y2="150.125" gradientUnits="userSpaceOnUse">
<stop stop-color="#ED1EFF"/>
<stop offset="1" stop-color="#00D1FF"/>
</linearGradient>
<linearGradient id="paint23_linear_1_2" x1="12.5498" y1="147.626" x2="296.566" y2="147.626" gradientUnits="userSpaceOnUse">
<stop stop-color="#ED1EFF"/>
<stop offset="1" stop-color="#00D1FF"/>
</linearGradient>
<linearGradient id="paint24_linear_1_2" x1="28.2363" y1="145.163" x2="309.398" y2="145.163" gradientUnits="userSpaceOnUse">
<stop stop-color="#ED1EFF"/>
<stop offset="1" stop-color="#00D1FF"/>
</linearGradient>
<linearGradient id="paint25_linear_1_2" x1="39.633" y1="142.78" x2="322.302" y2="142.78" gradientUnits="userSpaceOnUse">
<stop stop-color="#ED1EFF"/>
<stop offset="1" stop-color="#00D1FF"/>
</linearGradient>
<linearGradient id="paint26_linear_1_2" x1="50.8681" y1="140.525" x2="335.116" y2="140.525" gradientUnits="userSpaceOnUse">
<stop stop-color="#ED1EFF"/>
<stop offset="1" stop-color="#00D1FF"/>
</linearGradient>
<linearGradient id="paint27_linear_1_2" x1="61.9272" y1="138.453" x2="347.933" y2="138.453" gradientUnits="userSpaceOnUse">
<stop stop-color="#ED1EFF"/>
<stop offset="1" stop-color="#00D1FF"/>
</linearGradient>
<linearGradient id="paint28_linear_1_2" x1="72.9414" y1="136.665" x2="360.711" y2="136.665" gradientUnits="userSpaceOnUse">
<stop stop-color="#ED1EFF"/>
<stop offset="1" stop-color="#00D1FF"/>
</linearGradient>
<linearGradient id="paint29_linear_1_2" x1="84.05" y1="135.179" x2="373.531" y2="135.179" gradientUnits="userSpaceOnUse">
<stop stop-color="#ED1EFF"/>
<stop offset="1" stop-color="#00D1FF"/>
</linearGradient>
<linearGradient id="paint30_linear_1_2" x1="95.062" y1="134.045" x2="386.332" y2="134.045" gradientUnits="userSpaceOnUse">
<stop stop-color="#ED1EFF"/>
<stop offset="1" stop-color="#00D1FF"/>
</linearGradient>
<linearGradient id="paint31_linear_1_2" x1="106.4" y1="133.384" x2="399.173" y2="133.384" gradientUnits="userSpaceOnUse">
<stop stop-color="#ED1EFF"/>
<stop offset="1" stop-color="#00D1FF"/>
</linearGradient>
<linearGradient id="paint32_linear_1_2" x1="117.839" y1="133.182" x2="411.855" y2="133.182" gradientUnits="userSpaceOnUse">
<stop stop-color="#ED1EFF"/>
<stop offset="1" stop-color="#00D1FF"/>
</linearGradient>
<linearGradient id="paint33_linear_1_2" x1="129.381" y1="133.29" x2="424.675" y2="133.29" gradientUnits="userSpaceOnUse">
<stop stop-color="#ED1EFF"/>
<stop offset="1" stop-color="#00D1FF"/>
</linearGradient>
<linearGradient id="paint34_linear_1_2" x1="141.383" y1="133.574" x2="437.257" y2="133.574" gradientUnits="userSpaceOnUse">
<stop stop-color="#ED1EFF"/>
<stop offset="1" stop-color="#00D1FF"/>
</linearGradient>
<linearGradient id="paint35_linear_1_2" x1="154.86" y1="134.031" x2="449.885" y2="134.031" gradientUnits="userSpaceOnUse">
<stop stop-color="#ED1EFF"/>
<stop offset="1" stop-color="#00D1FF"/>
</linearGradient>
<linearGradient id="paint36_linear_1_2" x1="168.328" y1="134.606" x2="461.824" y2="134.606" gradientUnits="userSpaceOnUse">
<stop stop-color="#ED1EFF"/>
<stop offset="1" stop-color="#00D1FF"/>
</linearGradient>
<linearGradient id="paint37_linear_1_2" x1="181.469" y1="135.354" x2="474.266" y2="135.354" gradientUnits="userSpaceOnUse">
<stop stop-color="#ED1EFF"/>
<stop offset="1" stop-color="#00D1FF"/>
</linearGradient>
<linearGradient id="paint38_linear_1_2" x1="194.308" y1="136.22" x2="486.715" y2="136.22" gradientUnits="userSpaceOnUse">
<stop stop-color="#ED1EFF"/>
<stop offset="1" stop-color="#00D1FF"/>
</linearGradient>
<linearGradient id="paint39_linear_1_2" x1="206.563" y1="137.21" x2="499.143" y2="137.21" gradientUnits="userSpaceOnUse">
<stop stop-color="#ED1EFF"/>
<stop offset="1" stop-color="#00D1FF"/>
</linearGradient>
<linearGradient id="paint40_linear_1_2" x1="217.805" y1="138.317" x2="511.461" y2="138.317" gradientUnits="userSpaceOnUse">
<stop stop-color="#ED1EFF"/>
<stop offset="1" stop-color="#00D1FF"/>
</linearGradient>
<linearGradient id="paint41_linear_1_2" x1="227.81" y1="139.526" x2="523.764" y2="139.526" gradientUnits="userSpaceOnUse">
<stop stop-color="#ED1EFF"/>
<stop offset="1" stop-color="#00D1FF"/>
</linearGradient>
<linearGradient id="paint42_linear_1_2" x1="236.338" y1="140.822" x2="536.045" y2="140.822" gradientUnits="userSpaceOnUse">
<stop stop-color="#ED1EFF"/>
<stop offset="1" stop-color="#00D1FF"/>
</linearGradient>
<linearGradient id="paint43_linear_1_2" x1="243.303" y1="142.226" x2="548.217" y2="142.226" gradientUnits="userSpaceOnUse">
<stop stop-color="#ED1EFF"/>
<stop offset="1" stop-color="#00D1FF"/>
</linearGradient>
<linearGradient id="paint44_linear_1_2" x1="248.935" y1="143.699" x2="560.347" y2="143.699" gradientUnits="userSpaceOnUse">
<stop stop-color="#ED1EFF"/>
<stop offset="1" stop-color="#00D1FF"/>
</linearGradient>
<linearGradient id="paint45_linear_1_2" x1="253.434" y1="145.211" x2="572.454" y2="145.211" gradientUnits="userSpaceOnUse">
<stop stop-color="#ED1EFF"/>
<stop offset="1" stop-color="#00D1FF"/>
</linearGradient>
<linearGradient id="paint46_linear_1_2" x1="256.982" y1="146.817" x2="584.477" y2="146.817" gradientUnits="userSpaceOnUse">
<stop stop-color="#ED1EFF"/>
<stop offset="1" stop-color="#00D1FF"/>
</linearGradient>
<linearGradient id="paint47_linear_1_2" x1="260.185" y1="148.442" x2="596.473" y2="148.442" gradientUnits="userSpaceOnUse">
<stop stop-color="#ED1EFF"/>
<stop offset="1" stop-color="#00D1FF"/>
</linearGradient>
<linearGradient id="paint48_linear_1_2" x1="262.223" y1="150.118" x2="609.463" y2="150.118" gradientUnits="userSpaceOnUse">
<stop stop-color="#ED1EFF"/>
<stop offset="1" stop-color="#00D1FF"/>
</linearGradient>
<linearGradient id="paint49_linear_1_2" x1="263.983" y1="151.826" x2="621.282" y2="151.826" gradientUnits="userSpaceOnUse">
<stop stop-color="#ED1EFF"/>
<stop offset="1" stop-color="#00D1FF"/>
</linearGradient>
<linearGradient id="paint50_linear_1_2" x1="265.527" y1="153.532" x2="633.029" y2="153.532" gradientUnits="userSpaceOnUse">
<stop stop-color="#ED1EFF"/>
<stop offset="1" stop-color="#00D1FF"/>
</linearGradient>
<linearGradient id="paint51_linear_1_2" x1="266.963" y1="155.274" x2="644.713" y2="155.274" gradientUnits="userSpaceOnUse">
<stop stop-color="#ED1EFF"/>
<stop offset="1" stop-color="#00D1FF"/>
</linearGradient>
<linearGradient id="paint52_linear_1_2" x1="268.418" y1="156.99" x2="656.017" y2="156.99" gradientUnits="userSpaceOnUse">
<stop stop-color="#ED1EFF"/>
<stop offset="1" stop-color="#00D1FF"/>
</linearGradient>
<linearGradient id="paint53_linear_1_2" x1="269.919" y1="158.703" x2="667.526" y2="158.703" gradientUnits="userSpaceOnUse">
<stop stop-color="#ED1EFF"/>
<stop offset="1" stop-color="#00D1FF"/>
</linearGradient>
<linearGradient id="paint54_linear_1_2" x1="271.549" y1="160.411" x2="678.749" y2="160.411" gradientUnits="userSpaceOnUse">
<stop stop-color="#ED1EFF"/>
<stop offset="1" stop-color="#00D1FF"/>
</linearGradient>
<linearGradient id="paint55_linear_1_2" x1="273.361" y1="162.077" x2="690.126" y2="162.077" gradientUnits="userSpaceOnUse">
<stop stop-color="#ED1EFF"/>
<stop offset="1" stop-color="#00D1FF"/>
</linearGradient>
<linearGradient id="paint56_linear_1_2" x1="275.387" y1="163.717" x2="701.381" y2="163.717" gradientUnits="userSpaceOnUse">
<stop stop-color="#ED1EFF"/>
<stop offset="1" stop-color="#00D1FF"/>
</linearGradient>
<linearGradient id="paint57_linear_1_2" x1="277.761" y1="165.305" x2="712.45" y2="165.305" gradientUnits="userSpaceOnUse">
<stop stop-color="#ED1EFF"/>
<stop offset="1" stop-color="#00D1FF"/>
</linearGradient>
<linearGradient id="paint58_linear_1_2" x1="280.476" y1="166.823" x2="723.552" y2="166.823" gradientUnits="userSpaceOnUse">
<stop stop-color="#ED1EFF"/>
<stop offset="1" stop-color="#00D1FF"/>
</linearGradient>
<linearGradient id="paint59_linear_1_2" x1="283.647" y1="168.279" x2="734.478" y2="168.279" gradientUnits="userSpaceOnUse">
<stop stop-color="#ED1EFF"/>
<stop offset="1" stop-color="#00D1FF"/>
</linearGradient>
<linearGradient id="paint60_linear_1_2" x1="287.276" y1="169.656" x2="745.434" y2="169.656" gradientUnits="userSpaceOnUse">
<stop stop-color="#ED1EFF"/>
<stop offset="1" stop-color="#00D1FF"/>
</linearGradient>
<linearGradient id="paint61_linear_1_2" x1="291.463" y1="170.954" x2="756.287" y2="170.954" gradientUnits="userSpaceOnUse">
<stop stop-color="#ED1EFF"/>
<stop offset="1" stop-color="#00D1FF"/>
</linearGradient>
<linearGradient id="paint62_linear_1_2" x1="296.271" y1="172.154" x2="767.048" y2="172.154" gradientUnits="userSpaceOnUse">
<stop stop-color="#ED1EFF"/>
<stop offset="1" stop-color="#00D1FF"/>
</linearGradient>
<linearGradient id="paint63_linear_1_2" x1="301.749" y1="173.268" x2="777.684" y2="173.268" gradientUnits="userSpaceOnUse">
<stop stop-color="#ED1EFF"/>
<stop offset="1" stop-color="#00D1FF"/>
</linearGradient>
<linearGradient id="paint64_linear_1_2" x1="307.947" y1="174.254" x2="789.006" y2="174.254" gradientUnits="userSpaceOnUse">
<stop stop-color="#ED1EFF"/>
<stop offset="1" stop-color="#00D1FF"/>
</linearGradient>
<linearGradient id="paint65_linear_1_2" x1="314.939" y1="175.112" x2="799.444" y2="175.112" gradientUnits="userSpaceOnUse">
<stop stop-color="#ED1EFF"/>
<stop offset="1" stop-color="#00D1FF"/>
</linearGradient>
<linearGradient id="paint66_linear_1_2" x1="322.78" y1="175.826" x2="809.783" y2="175.826" gradientUnits="userSpaceOnUse">
<stop stop-color="#ED1EFF"/>
<stop offset="1" stop-color="#00D1FF"/>
</linearGradient>
<linearGradient id="paint67_linear_1_2" x1="331.521" y1="176.408" x2="820.018" y2="176.408" gradientUnits="userSpaceOnUse">
<stop stop-color="#ED1EFF"/>
<stop offset="1" stop-color="#00D1FF"/>
</linearGradient>
<linearGradient id="paint68_linear_1_2" x1="341.142" y1="176.847" x2="830.128" y2="176.847" gradientUnits="userSpaceOnUse">
<stop stop-color="#ED1EFF"/>
<stop offset="1" stop-color="#00D1FF"/>
</linearGradient>
<linearGradient id="paint69_linear_1_2" x1="351.677" y1="177.109" x2="840.102" y2="177.109" gradientUnits="userSpaceOnUse">
<stop stop-color="#ED1EFF"/>
<stop offset="1" stop-color="#00D1FF"/>
</linearGradient>
<linearGradient id="paint70_linear_1_2" x1="363.192" y1="177.191" x2="849.963" y2="177.191" gradientUnits="userSpaceOnUse">
<stop stop-color="#ED1EFF"/>
<stop offset="1" stop-color="#00D1FF"/>
</linearGradient>
<linearGradient id="paint71_linear_1_2" x1="377.291" y1="177.061" x2="859.598" y2="177.061" gradientUnits="userSpaceOnUse">
<stop stop-color="#ED1EFF"/>
<stop offset="1" stop-color="#00D1FF"/>
</linearGradient>
<linearGradient id="paint72_linear_1_2" x1="395.608" y1="176.67" x2="869.25" y2="176.67" gradientUnits="userSpaceOnUse">
<stop stop-color="#ED1EFF"/>
<stop offset="1" stop-color="#00D1FF"/>
</linearGradient>
<linearGradient id="paint73_linear_1_2" x1="417.43" y1="176.037" x2="878.874" y2="176.037" gradientUnits="userSpaceOnUse">
<stop stop-color="#ED1EFF"/>
<stop offset="1" stop-color="#00D1FF"/>
</linearGradient>
<linearGradient id="paint74_linear_1_2" x1="441.74" y1="175.186" x2="888.353" y2="175.186" gradientUnits="userSpaceOnUse">
<stop stop-color="#ED1EFF"/>
<stop offset="1" stop-color="#00D1FF"/>
</linearGradient>
<linearGradient id="paint75_linear_1_2" x1="468.936" y1="174.167" x2="897.562" y2="174.167" gradientUnits="userSpaceOnUse">
<stop stop-color="#ED1EFF"/>
<stop offset="1" stop-color="#00D1FF"/>
</linearGradient>
<linearGradient id="paint76_linear_1_2" x1="498.079" y1="173.006" x2="906.692" y2="173.006" gradientUnits="userSpaceOnUse">
<stop stop-color="#ED1EFF"/>
<stop offset="1" stop-color="#00D1FF"/>
</linearGradient>
<linearGradient id="paint77_linear_1_2" x1="528.746" y1="171.75" x2="915.604" y2="171.75" gradientUnits="userSpaceOnUse">
<stop stop-color="#ED1EFF"/>
<stop offset="1" stop-color="#00D1FF"/>
</linearGradient>
<linearGradient id="paint78_linear_1_2" x1="560.461" y1="170.4" x2="924.27" y2="170.4" gradientUnits="userSpaceOnUse">
<stop stop-color="#ED1EFF"/>
<stop offset="1" stop-color="#00D1FF"/>
</linearGradient>
<linearGradient id="paint79_linear_1_2" x1="592.675" y1="169.03" x2="933.104" y2="169.03" gradientUnits="userSpaceOnUse">
<stop stop-color="#ED1EFF"/>
<stop offset="1" stop-color="#00D1FF"/>
</linearGradient>
<clipPath id="clip0_1_2">
<rect width="600" height="320" fill="white"/>
</clipPath>
</defs>
</svg>
