<svg width="310" height="24" viewBox="0 0 310 24" fill="none" xmlns="http://www.w3.org/2000/svg">
          <g clip-path="url(#clip0_5_19)">
            <path d="M29.8312 11.3819C28.513 10.0037 26.9288 9.31489 25.0779 9.31489H6.7304C6.38963 9.31489 6.09729 9.18826 5.85278 8.93436C5.60827 8.68111 5.48631 8.37221 5.48631 8.00767V6.41586C5.48631 6.06795 5.60827 5.76673 5.85278 5.51283C6.09729 5.25957 6.38963 5.1323 6.7304 5.1323H30.3866C30.4458 5.1323 30.4936 5.11248 30.5307 5.07283C30.5678 5.03381 30.5863 4.98969 30.5863 4.94236V0.189943C30.5863 0.126629 30.5678 0.0793029 30.5307 0.0473259C30.4936 0.0159885 30.4452 0 30.3866 0H6.7304C4.86456 0 3.27612 0.689424 1.96567 2.06763C0.655224 3.44584 0 5.10864 0 7.05732V7.36621C0 9.33088 0.655224 11.002 1.96567 12.3802C3.27612 13.7584 4.86456 14.4472 6.7304 14.4472H25.0779C25.4037 14.4472 25.6889 14.57 25.9328 14.8156C26.1773 15.0612 26.2992 15.3662 26.2992 15.7308V17.3226C26.2992 17.6871 26.1773 17.9922 25.9328 18.2377C25.6883 18.4833 25.4031 18.6061 25.0779 18.6061H1.39953C1.35529 18.6061 1.31404 18.6259 1.27757 18.6656C1.2405 18.7052 1.22197 18.757 1.22197 18.8204V23.5728C1.22197 23.6201 1.2405 23.6642 1.27757 23.7032C1.31463 23.7429 1.35529 23.7627 1.39953 23.7627H25.0779C26.9288 23.7627 28.513 23.0701 29.8312 21.6836C31.1489 20.2977 31.8083 18.6304 31.8083 16.6817V16.3722C31.8077 14.4235 31.1489 12.7601 29.8312 11.3819Z" fill="#00D1FF"></path>
            <path d="M69.6635 0H64.5323C64.4881 0 64.4469 0.0159885 64.4104 0.0473259C64.3733 0.0793029 64.3548 0.126629 64.3548 0.189943V6.22528C64.3548 6.74778 64.1025 7.14429 63.5997 7.41354L53.3601 11.9517L43.1204 7.41354C42.617 7.14429 42.3653 6.74842 42.3653 6.22528V0.189943C42.3653 0.126629 42.3504 0.0793029 42.3211 0.0473259C42.2906 0.0159885 42.2464 0 42.1872 0H37.056C37.0117 0 36.9705 0.0159885 36.934 0.0473259C36.897 0.0793029 36.8784 0.126629 36.8784 0.189943V7.10464C36.8784 8.13494 37.1451 9.07698 37.6783 9.93205C38.2116 10.7878 38.9368 11.4209 39.855 11.8328L50.6058 16.6562V23.5478C50.6058 23.6112 50.6244 23.663 50.6614 23.7026C50.6985 23.7423 50.7463 23.7621 50.8055 23.7621H55.9367C55.9809 23.7621 56.0216 23.7423 56.0587 23.7026C56.0957 23.663 56.1143 23.6118 56.1143 23.5478V16.6568L66.8651 11.8571C67.7828 11.4292 68.5091 10.7916 69.0418 9.9442C69.5751 9.09681 69.8411 8.1586 69.8411 7.12831V0.189943C69.8411 0.126629 69.8226 0.0793029 69.7855 0.0473259C69.7484 0.0159885 69.7078 0 69.6635 0Z" fill="#00D1FF"></path>
            <path d="M107.777 0H102.645C102.586 0 102.541 0.0198257 102.512 0.0594772C102.482 0.0991286 102.468 0.142617 102.468 0.189943V18.6291H100.313C99.9133 18.6291 99.5725 18.4392 99.2916 18.0587L89.3406 2.49484C88.2741 0.895355 86.8005 0.0633144 84.9203 0H76.3468C76.2876 0 76.2392 0.0198257 76.2021 0.0594772C76.165 0.0991286 76.1465 0.142617 76.1465 0.189943V23.5715C76.1465 23.6188 76.165 23.663 76.2021 23.702C76.2392 23.7416 76.287 23.7615 76.3468 23.7615H81.478C81.5222 23.7615 81.5628 23.7416 81.5999 23.702C81.637 23.663 81.6555 23.6188 81.6555 23.5715V5.13231H83.8101C84.21 5.13231 84.5502 5.33056 84.8318 5.72644L94.7827 21.2903C95.8492 22.8904 97.3223 23.7141 99.2031 23.7615H107.777C107.836 23.7615 107.881 23.7416 107.911 23.702C107.94 23.663 107.955 23.6188 107.955 23.5715V0.189943C107.955 0.142617 107.94 0.0991286 107.911 0.0594772C107.88 0.0198257 107.836 0 107.777 0Z" fill="#00D1FF"></path>
            <path d="M144.863 0H113.432C113.373 0 113.328 0.0198257 113.299 0.0594772C113.269 0.0991286 113.255 0.142617 113.255 0.189943V4.94236C113.255 4.98969 113.269 5.03382 113.299 5.07283C113.328 5.11248 113.373 5.13231 113.432 5.13231H126.404V23.5715C126.404 23.6188 126.419 23.663 126.448 23.702C126.478 23.7416 126.523 23.7615 126.582 23.7615H131.713C131.772 23.7615 131.816 23.7416 131.846 23.702C131.876 23.663 131.891 23.6188 131.891 23.5715V5.13231H144.862C144.922 5.13231 144.969 5.11248 145.006 5.07283C145.043 5.03318 145.062 4.98969 145.062 4.94236V0.189943C145.062 0.142617 145.043 0.0991286 145.006 0.0594772C144.971 0.0198257 144.922 0 144.863 0Z" fill="#00D1FF"></path>
            <path d="M182.976 0H177.844C177.8 0 177.759 0.0198257 177.722 0.0594772C177.685 0.0991286 177.667 0.142617 177.667 0.189943V9.31425H156.876V0.189943C156.876 0.142617 156.858 0.0991286 156.82 0.0594772C156.783 0.0204653 156.735 0 156.676 0H151.545C151.501 0 151.46 0.0198257 151.423 0.0594772C151.386 0.0991286 151.368 0.142617 151.368 0.189943V23.5715C151.368 23.6188 151.386 23.663 151.423 23.702C151.46 23.7416 151.501 23.7615 151.545 23.7615H156.676C156.736 23.7615 156.783 23.7416 156.82 23.702C156.858 23.6623 156.876 23.6188 156.876 23.5715V14.4472H177.667V23.5715C177.667 23.6188 177.685 23.663 177.722 23.702C177.76 23.7416 177.8 23.7615 177.844 23.7615H182.976C183.035 23.7615 183.083 23.7416 183.12 23.702C183.157 23.6623 183.175 23.6188 183.175 23.5715V0.189943C183.175 0.142617 183.156 0.0991286 183.12 0.0594772C183.083 0.0198257 183.034 0 182.976 0Z" fill="#00D1FF"></path>
            <path d="M220.952 0H196.053C194.201 0 192.617 0.688784 191.299 2.06699C189.981 3.4452 189.322 5.10864 189.322 7.05732V16.6805C189.322 18.6451 189.981 20.3162 191.299 21.6945C192.617 23.0727 194.201 23.7621 196.053 23.7621H220.952C220.997 23.7621 221.037 23.7423 221.074 23.7026C221.111 23.663 221.13 23.6195 221.13 23.5721V18.8197C221.13 18.7564 221.111 18.7091 221.074 18.6771C221.037 18.6458 220.997 18.6298 220.952 18.6298H196.053C195.712 18.6298 195.423 18.5032 195.186 18.2499C194.949 17.9966 194.831 17.6954 194.831 17.3469V14.4472H220.936C220.995 14.4472 221.04 14.4274 221.07 14.3877C221.099 14.3481 221.114 14.3046 221.114 14.2573V9.50483C221.114 9.44152 221.099 9.39419 221.07 9.36222C221.04 9.33088 220.995 9.31489 220.936 9.31489H194.831V6.41586C194.831 6.06731 194.949 5.76673 195.186 5.51283C195.423 5.25957 195.712 5.1323 196.053 5.1323H220.952C220.997 5.1323 221.037 5.11248 221.074 5.07283C221.111 5.03381 221.13 4.98969 221.13 4.94236V0.189943C221.13 0.142617 221.111 0.0991286 221.074 0.0594772C221.037 0.0204653 220.997 0 220.952 0Z" fill="#00D1FF"></path>
            <path d="M258.885 0H227.454C227.395 0 227.35 0.0198257 227.321 0.0594772C227.291 0.0991286 227.277 0.142617 227.277 0.189943V4.94236C227.277 4.98969 227.291 5.03382 227.321 5.07283C227.35 5.11248 227.395 5.13231 227.454 5.13231H240.426V23.5715C240.426 23.6188 240.441 23.663 240.47 23.702C240.5 23.7416 240.545 23.7615 240.604 23.7615H245.735C245.794 23.7615 245.838 23.7416 245.868 23.702C245.898 23.663 245.912 23.6188 245.912 23.5715V5.13231H258.884C258.943 5.13231 258.991 5.11248 259.028 5.07283C259.065 5.03318 259.084 4.98969 259.084 4.94236V0.189943C259.084 0.142617 259.065 0.0991286 259.028 0.0594772C258.992 0.0198257 258.943 0 258.885 0Z" fill="#00D1FF"></path>
            <path d="M270.831 0.0473259C270.801 0.0159885 270.757 0 270.698 0H265.567C265.508 0 265.463 0.0159885 265.433 0.0473259C265.404 0.0793029 265.389 0.126629 265.389 0.189943V23.5715C265.389 23.6188 265.404 23.663 265.433 23.702C265.463 23.7416 265.508 23.7615 265.567 23.7615H270.698C270.757 23.7615 270.801 23.7416 270.831 23.702C270.86 23.6623 270.875 23.6188 270.875 23.5715V0.189943C270.875 0.127268 270.86 0.0793029 270.831 0.0473259Z" fill="#00D1FF"></path>
            <path d="M284.998 5.77448C284.775 5.50524 284.501 5.37029 284.176 5.37029H277.512C277.453 5.37029 277.405 5.35047 277.368 5.31082C277.331 5.27181 277.312 5.22768 277.312 5.18035V0.427931C277.312 0.380605 277.331 0.337116 277.368 0.297465C277.405 0.258453 277.453 0.237988 277.512 0.237988H284.553C286.33 0.237988 287.863 1.00671 289.151 2.54289L290.862 4.7525L287.53 9.0534L284.998 5.77448ZM297.303 2.51923C298.591 0.9984 300.131 0.237988 301.923 0.237988H308.942C309.001 0.237988 309.045 0.253976 309.075 0.285313C309.105 0.31729 309.119 0.364616 309.119 0.427931V5.18035C309.119 5.22768 309.105 5.27181 309.075 5.31082C309.045 5.35047 309.001 5.37029 308.942 5.37029H302.278C301.953 5.37029 301.679 5.50524 301.456 5.77448L296.548 12.0951L301.479 18.463C301.701 18.7169 301.967 18.8435 302.278 18.8435H308.942C309.001 18.8435 309.045 18.8633 309.075 18.903C309.105 18.9426 309.119 18.9944 309.119 19.0571V23.8095C309.119 23.8568 309.105 23.901 309.075 23.94C309.045 23.9796 309.001 23.9995 308.942 23.9995H301.923C300.132 23.9995 298.599 23.2314 297.325 21.6945L293.239 16.4196L289.151 21.6945C287.863 23.2314 286.323 23.9995 284.531 23.9995H277.512C277.453 23.9995 277.408 23.9796 277.379 23.94C277.349 23.9003 277.335 23.8492 277.335 23.7852V19.0328C277.335 18.9855 277.349 18.942 277.379 18.9023C277.408 18.8627 277.453 18.8428 277.512 18.8428H284.176C284.486 18.8428 284.76 18.7085 284.998 18.4387L289.817 12.2134L297.303 2.51923Z" fill="#00D1FF"></path>
          </g>
          <defs>
            <clipPath id="clip0_5_19">
              <rect width="309.12" height="24" fill="white"></rect>
            </clipPath>
          </defs>
        </svg>