<svg xmlns="http://www.w3.org/2000/svg" viewBox="0 0 481.2 148.89" class="tw-hidden tw-h-7 md:tw-block" fill="white"><g data-name="Layer 2"><g data-name="Layer 1"><path d="M63.68 57.61H40.5L40.39 145H17.44l.11-87.41H0v-23h17.55L17.44 0h23l.11 34.66h23.13ZM128.43 148.89a51.33 51.33 0 0 1-27.76-7.83 58.64 58.64 0 0 1-27.42-50.22 59.37 59.37 0 0 1 16.17-41.22A55.07 55.07 0 0 1 107 37.09a53.06 53.06 0 0 1 49.17 3.31 58 58 0 0 1 20 21.08 58.92 58.92 0 0 1 7.44 29.36 58.63 58.63 0 0 1-4.3 22.51 59.65 59.65 0 0 1-11.86 18.49 55.31 55.31 0 0 1-17.55 12.53 51.53 51.53 0 0 1-21.47 4.52m0-22.95a29 29 0 0 0 16.45-4.86 34.76 34.76 0 0 0 11.53-12.86 37.8 37.8 0 0 0-.11-35 35.18 35.18 0 0 0-11.64-12.86 30 30 0 0 0-32.62.06 34.5 34.5 0 0 0-11.59 12.91 37.07 37.07 0 0 0-4.25 17.51 36 36 0 0 0 4.42 17.77 34.71 34.71 0 0 0 11.75 12.64 29.32 29.32 0 0 0 16.06 4.69M267.68 59.41a42.36 42.36 0 0 0-9.88-4.5 24.57 24.57 0 0 0-7.34-1 25.38 25.38 0 0 0-15 4.52 30.26 30.26 0 0 0-10 12.26 40.13 40.13 0 0 0-3.59 17.1V145h-23.06V34.66h22.95v14.9a43.69 43.69 0 0 1 14-13.08 35.75 35.75 0 0 1 18.37-4.8c2.5 0 4.88.11 7.12.33a31.11 31.11 0 0 1 6.46 1.32ZM437.6 147.12a61.32 61.32 0 0 1-17-3.53 48.57 48.57 0 0 1-14.52-8.11 32.81 32.81 0 0 1-9.32-12.09L416.3 115a17.51 17.51 0 0 0 5 5.85 30.44 30.44 0 0 0 8.45 4.69 28.5 28.5 0 0 0 10.15 1.82 30.46 30.46 0 0 0 9.66-1.48 17.26 17.26 0 0 0 7.34-4.59 10.47 10.47 0 0 0 2.87-7.39 9.28 9.28 0 0 0-3.26-7.56 22.57 22.57 0 0 0-8.11-4.14c-3.24-1-6.48-1.88-9.71-2.76a94.46 94.46 0 0 1-19.81-6.68 39.27 39.27 0 0 1-14.3-10.92q-5.3-6.68-5.29-16.39A30.3 30.3 0 0 1 405 47.07a36.78 36.78 0 0 1 15.07-12 48.3 48.3 0 0 1 20-4.2 52.69 52.69 0 0 1 24.28 5.63A40.56 40.56 0 0 1 481.2 52L463 62.8a17.89 17.89 0 0 0-5-6 27.84 27.84 0 0 0-7.5-4.25 28.21 28.21 0 0 0-8.72-1.82A30.66 30.66 0 0 0 431.37 52a16.65 16.65 0 0 0-7.67 4.69 11.74 11.74 0 0 0-2.87 8.17q0 4.84 3.42 7.23a28.11 28.11 0 0 0 8.66 3.8q5.25 1.44 10.76 3.2a114.47 114.47 0 0 1 18.44 7.56 43.2 43.2 0 0 1 13.9 11 23.44 23.44 0 0 1 5.08 15.89 28.37 28.37 0 0 1-6.24 18.21 39.25 39.25 0 0 1-16.17 11.92 47.4 47.4 0 0 1-21.08 3.45M387.29 90.4c.71 30.26-24.67 59-55.63 58.44-31.79.6-57.46-29.93-55.41-60.89a58.83 58.83 0 0 1 10.81-32.24c.29-.48.5-.5.92-.1a61.78 61.78 0 0 0 18 12.33c.5.21.54.36.23.78a36.8 36.8 0 0 0-6.78 24c.26 22.25 25 40.73 45.8 29.84 19-9.4 24.7-36.21 12.52-53.18-1.17-1.17-.94-1.47.55-1.91a60.13 60.13 0 0 0 12.33-7.77 54.22 54.22 0 0 0 4.88-4.34c.39-.41.58-.31.86.09a59.21 59.21 0 0 1 10.92 34.95"></path><path d="M287.81 0h10.68c1 0 .86-.12.88.91-.59 25.55 29.29 45.16 50.71 28.3a36.07 36.07 0 0 0 14-28.56c0-.49.1-.67.64-.67h21.94c.49 0 .6.15.6.62.42 41-43.43 72.06-80.81 51.59-18.56-9.99-30.31-30.44-30.25-51.5 0-.53.12-.69.67-.69z"></path></g></g></svg>